HIERARCHY
ROOT Hips
{
	OFFSET 0.000000 0.000000 0.000000
	CHANNELS 6 Xposition Yposition Zposition Xrotation Yrotation Zrotation
	JOINT LeftUpLeg_virtual
	{
		OFFSET 0.000000 0.000000 0.000000
		CHANNELS 3 Xrotation Yrotation Zrotation
		JOINT LeftUpLeg
		{
			OFFSET 10.205400 -3.823500 0.155100
			CHANNELS 3 Xrotation Yrotation Zrotation
			JOINT LeftLeg
			{
				OFFSET 0.708757 -12.982077 0.567790
				CHANNELS 3 Xrotation Yrotation Zrotation
				JOINT LeftFoot
				{
					OFFSET -0.708756 -10.717838 -2.184338
					CHANNELS 3 Xrotation Yrotation Zrotation
					JOINT LeftToeBase
					{
						OFFSET 0.108149 -7.191104 7.560241
						CHANNELS 3 Xrotation Yrotation Zrotation
						JOINT LeftToe_End
						{
							OFFSET 0.070230 0.081724 4.490308
							CHANNELS 3 Xrotation Yrotation Zrotation
							End Site
							{
								OFFSET 0 0 0
							}
						}
					}
				}
			}
		}
	}
	JOINT RightUpLeg_virtual
	{
		OFFSET 0.000000 0.000000 0.000000
		CHANNELS 3 Xrotation Yrotation Zrotation
		JOINT RightUpLeg
		{
			OFFSET -10.205400 -3.823500 0.005500
			CHANNELS 3 Xrotation Yrotation Zrotation
			JOINT RightLeg
			{
				OFFSET -0.708756 -12.982134 0.610632
				CHANNELS 3 Xrotation Yrotation Zrotation
				JOINT RightFoot
				{
					OFFSET 0.708754 -10.717769 -1.945823
					CHANNELS 3 Xrotation Yrotation Zrotation
					JOINT RightToeBase
					{
						OFFSET -0.108140 -7.191069 7.372968
						CHANNELS 3 Xrotation Yrotation Zrotation
						JOINT RightToe_End
						{
							OFFSET -0.070227 0.081735 4.479403
							CHANNELS 3 Xrotation Yrotation Zrotation
							End Site
							{
								OFFSET 0 0 0
							}
						}
					}
				}
			}
		}
	}
	JOINT Spine_virtual
	{
		OFFSET 0.000000 0.000000 0.000000
		CHANNELS 3 Xrotation Yrotation Zrotation
		JOINT Spine
		{
			OFFSET 0.000000 6.876099 0.125700
			CHANNELS 3 Xrotation Yrotation Zrotation
			JOINT Spine1
			{
				OFFSET 0.000000 5.730043 0.104720
				CHANNELS 3 Xrotation Yrotation Zrotation
				JOINT Spine1_split
				{
					OFFSET 0.000000 5.730043 0.104720
					CHANNELS 3 Xrotation Yrotation Zrotation
					JOINT Spine2
					{
						OFFSET 0.000000 5.730043 0.104720
						CHANNELS 3 Xrotation Yrotation Zrotation
						JOINT Neck_virtual
						{
							OFFSET 0.000000 0.000000 0.000000
							CHANNELS 3 Xrotation Yrotation Zrotation
							JOINT Neck
							{
								OFFSET 0.000000 10.314075 0.188496
								CHANNELS 3 Xrotation Yrotation Zrotation
								JOINT Head
								{
									OFFSET 0.000000 7.643700 -2.377400
									CHANNELS 3 Xrotation Yrotation Zrotation
									JOINT HeadTop_End
									{
										OFFSET 0.000000 43.788605 -13.619600
										CHANNELS 3 Xrotation Yrotation Zrotation
										End Site
										{
											OFFSET 0 0 0
										}
									}
								}
							}
						}
						JOINT LeftShoulder_virtual
						{
							OFFSET 0.000000 0.000000 0.000000
							CHANNELS 3 Xrotation Yrotation Zrotation
							JOINT LeftShoulder
							{
								OFFSET 2.196100 4.412489 0.087492
								CHANNELS 3 Xrotation Yrotation Zrotation
								JOINT LeftShoulder_split
								{
									OFFSET 2.196100 4.412489 0.087492
									CHANNELS 3 Xrotation Yrotation Zrotation
									JOINT LeftArm
									{
										OFFSET 8.771219 -2.981674 -0.026999
										CHANNELS 3 Xrotation Yrotation Zrotation
										JOINT LeftForeArm
										{
											OFFSET 8.512804 0.000000 -0.000000
											CHANNELS 3 Xrotation Yrotation Zrotation
											JOINT LeftHand
											{
												OFFSET 18.484802 0.000000 -0.000000
												CHANNELS 3 Xrotation Yrotation Zrotation
												End Site
												{
													OFFSET 0 0 0
												}
											}
										}
									}
								}
							}
						}
						JOINT RightShoulder_virtual
						{
							OFFSET 0.000000 0.000000 0.000000
							CHANNELS 3 Xrotation Yrotation Zrotation
							JOINT RightShoulder
							{
								OFFSET -2.196100 4.412496 0.070690
								CHANNELS 3 Xrotation Yrotation Zrotation
								JOINT RightShoulder_split
								{
									OFFSET -2.196100 4.412496 0.070690
									CHANNELS 3 Xrotation Yrotation Zrotation
									JOINT RightArm
									{
										OFFSET -8.771282 -2.981682 -0.094208
										CHANNELS 3 Xrotation Yrotation Zrotation
										JOINT RightForeArm
										{
											OFFSET -8.494598 0.000000 0.000000
											CHANNELS 3 Xrotation Yrotation Zrotation
											JOINT RightHand
											{
												OFFSET -18.483803 0.000000 0.000001
												CHANNELS 3 Xrotation Yrotation Zrotation
												End Site
												{
													OFFSET 0 0 0
												}
											}
										}
									}
								}
							}
						}
					}
				}
			}
		}
	}
}
MOTION
Frames: 5
Frame Time: 0.03333333
0.780318 30.003710 4.857317 0.000000 0.000000 0.000000 5.756463 -12.860456 0.184699 -77.209708 -11.505692 4.873170 116.081688 11.936770 -3.546607 33.843331 -16.021535 7.722915 16.936692 -6.344938 -0.926471 0.000000 0.000000 0.000000 0.940917 -14.143296 0.024749 14.824357 -5.290789 -2.455171 10.696991 12.176998 4.632683 17.738732 -4.645026 -20.265765 -44.903579 12.058502 18.747949 0.000000 0.000000 0.000000 5.969512 -8.795677 2.651240 1.853766 4.466383 2.278126 10.379483 2.958396 -1.209472 -0.025666 9.857201 -2.872117 0.000000 0.000000 0.000000 9.458230 1.803135 -0.847043 8.448958 -2.117326 -7.737789 -14.775118 2.958893 -11.516006 0.000000 0.000000 0.000000 8.510804 2.833437 -0.781538 0.029888 -12.191444 -8.354073 -0.753292 -5.711279 -6.134488 24.153456 2.378678 -46.388872 95.904831 -82.559379 80.246786 0.000000 0.000000 0.000000 11.459834 3.236016 -0.787629 0.483631 3.924599 4.316995 8.992443 8.273350 3.793641 -5.096752 -7.723382 60.017548 -96.328296 76.650118 90.207053 0.000000 0.000000 0.000000 
0.352775 29.770021 9.773811 0.000000 0.000000 0.000000 3.343041 -16.023460 1.384572 -79.330892 -9.703343 6.150514 102.827979 13.573512 -2.844164 31.589960 -14.452250 9.413203 17.464855 -6.017642 0.512150 0.000000 0.000000 0.000000 0.179479 -20.024192 1.727649 15.016465 -5.368717 -4.522584 14.544627 12.887183 5.860255 23.895951 -4.718346 -16.557915 -45.311174 11.792795 19.940608 0.000000 0.000000 0.000000 5.060534 -9.013206 3.229521 2.037670 4.839810 1.180683 10.108199 2.797750 -1.581989 0.673388 10.371132 -2.175254 0.000000 0.000000 0.000000 8.970778 1.885128 -1.041887 8.307431 -2.502721 -7.935238 -14.140677 3.533882 -10.796568 0.000000 0.000000 0.000000 8.338032 3.073023 -0.991555 0.496517 -10.635390 -6.875884 -2.228987 -4.603892 -6.885613 30.396917 8.382962 -46.860907 55.534779 -80.337286 40.057004 0.000000 0.000000 0.000000 10.978938 3.239227 -1.311810 0.378664 3.895598 2.942827 7.370650 3.887018 0.325789 -8.215421 -10.362422 56.223522 -126.005939 74.854666 119.774047 0.000000 0.000000 0.000000 
0.139394 29.072876 16.651464 0.000000 0.000000 0.000000 1.041216 -19.844092 5.244263 -77.966302 -10.307265 6.069273 82.509464 14.941887 1.059762 28.666738 -12.168745 8.248973 15.191500 -5.540401 3.372201 0.000000 0.000000 0.000000 -1.731349 -25.644343 5.598393 14.406783 -3.647402 -7.365105 21.485608 14.734149 7.673523 38.393695 -3.333937 -7.304738 -44.166889 10.469208 22.104488 0.000000 0.000000 0.000000 2.809041 -11.507638 6.305991 2.991889 5.297519 -1.245929 10.137306 2.764882 -2.862995 0.526394 8.778939 -0.412558 0.000000 0.000000 0.000000 8.766490 2.218561 -2.286791 8.864486 -3.080705 -7.994974 -12.863959 2.521239 -9.218467 0.000000 0.000000 0.000000 8.714303 3.512614 -2.373140 0.806487 -8.141461 -4.733477 -3.741919 -4.473145 -5.494633 35.440704 16.105200 -49.744179 33.038311 -71.348060 16.890684 0.000000 0.000000 0.000000 10.877104 3.528479 -2.985127 0.570649 4.163710 0.129785 6.211079 0.376249 -0.315702 -8.810297 -15.077221 49.670409 -145.769679 68.885108 140.179715 0.000000 0.000000 0.000000 
0.150488 27.688498 24.607628 0.000000 0.000000 0.000000 -0.560402 -24.143832 10.876444 -74.442341 -13.018435 4.478670 60.979287 13.941382 7.344877 28.210186 -9.306887 5.090692 10.386794 -5.196877 7.277310 0.000000 0.000000 0.000000 -2.722290 -30.819849 11.307238 12.621347 -0.184256 -9.367190 28.909845 17.396690 9.329135 52.614020 0.724690 1.693322 -38.945004 9.430902 24.291648 0.000000 0.000000 0.000000 -0.419690 -16.179753 11.195138 4.303451 5.533498 -4.323379 10.450308 2.723324 -4.603341 0.359576 5.467584 0.997777 0.000000 0.000000 0.000000 8.857861 2.593794 -4.185413 9.890396 -3.420975 -8.512984 -11.274652 0.697332 -7.527288 0.000000 0.000000 0.000000 9.412912 3.861973 -4.404208 0.887732 -5.109632 -2.758168 -4.281477 -5.708476 -4.099320 38.715718 23.415309 -54.116545 27.230784 -60.177969 9.592237 0.000000 0.000000 0.000000 11.171124 3.768725 -5.329487 0.926653 4.769084 -2.562989 6.438858 -1.111796 1.484594 -5.314406 -20.129665 43.051420 -154.401549 62.718198 150.291182 0.000000 0.000000 0.000000 
0.475387 25.597939 33.125839 0.000000 0.000000 0.000000 -1.278068 -28.492491 17.186696 -71.179546 -15.866581 1.974831 44.122943 10.485875 13.467235 30.307404 -6.261391 2.129255 4.876817 -5.078708 10.798017 0.000000 0.000000 0.000000 -2.633891 -35.177482 17.371358 7.482304 3.948838 -8.918355 38.597525 19.666181 10.346577 62.121896 4.480123 7.090992 -26.316603 10.248156 25.476778 0.000000 0.000000 0.000000 -2.724042 -22.198658 17.283126 5.616679 5.373586 -7.259721 11.063346 2.467811 -6.364390 0.038523 2.733270 1.480721 0.000000 0.000000 0.000000 9.025806 2.689886 -6.178340 11.095294 -3.117491 -10.075234 -9.753615 -0.787798 -6.563259 0.000000 0.000000 0.000000 10.219116 3.883264 -6.494590 0.808226 -2.384843 -1.944352 -2.882590 -7.059698 -2.763762 40.191008 28.270491 -59.316102 27.126638 -49.795672 6.957668 0.000000 0.000000 0.000000 11.846414 3.706838 -7.592063 1.385773 5.926541 -3.762708 7.221335 -1.008784 3.671237 2.003386 -23.664669 39.088503 -157.838377 59.664134 156.008405 0.000000 0.000000 0.000000 
